<svg xmlns="http://www.w3.org/2000/svg" viewBox="0 0 24 30" fill="none" x="0px" y="0px"><path fill-rule="evenodd" clip-rule="evenodd" d="M12 3.5C7.30558 3.5 3.5 7.30558 3.5 12C3.5 16.6944 7.30558 20.5 12 20.5C16.6944 20.5 20.5 16.6944 20.5 12C20.5 7.30558 16.6944 3.5 12 3.5ZM2.5 12C2.5 6.75329 6.75329 2.5 12 2.5C17.2467 2.5 21.5 6.75329 21.5 12C21.5 17.2467 17.2467 21.5 12 21.5C6.75329 21.5 2.5 17.2467 2.5 12ZM8.5 12C8.5 11.7239 8.72386 11.5 9 11.5H15C15.2761 11.5 15.5 11.7239 15.5 12C15.5 12.2761 15.2761 12.5 15 12.5H9C8.72386 12.5 8.5 12.2761 8.5 12Z" fill="red"/><text x="0" y="39" fill="#ffffff" font-size="5px" font-weight="bold" font-family="'Helvetica Neue', Helvetica, Arial-Unicode, Arial, Sans-serif">Created by Henning Gross</text><text x="0" y="44" fill="#000000" font-size="5px" font-weight="bold" font-family="'Helvetica Neue', Helvetica, Arial-Unicode, Arial, Sans-serif">from the Noun Project</text></svg>
